<?xml version="1.0" encoding="UTF-8" standalone="no"?>
<svg
   xmlns:dc="http://purl.org/dc/elements/1.1/"
   xmlns:cc="http://creativecommons.org/ns#"
   xmlns:rdf="http://www.w3.org/1999/02/22-rdf-syntax-ns#"
   xmlns:svg="http://www.w3.org/2000/svg"
   xmlns="http://www.w3.org/2000/svg"
   xmlns:sodipodi="http://sodipodi.sourceforge.net/DTD/sodipodi-0.dtd"
   xmlns:inkscape="http://www.inkscape.org/namespaces/inkscape"
   version="1.1"
   id="Wikimedia logo"
   viewBox="-599 -599 1117.92 1117.92"
   width="955.55103"
   height="955.55103"
   inkscape:version="0.92.3 (2405546, 2018-03-11)"
   sodipodi:docname="Pywikibot_Alternative_Logo.svg"
   inkscape:export-filename="/home/gallaecio/temporal/pywikibot.png"
   inkscape:export-xdpi="22.5"
   inkscape:export-ydpi="22.5">
  <metadata
     id="metadata15">
    <rdf:RDF>
      <cc:Work
         rdf:about="">
        <dc:format>image/svg+xml</dc:format>
        <dc:type
           rdf:resource="http://purl.org/dc/dcmitype/StillImage" />
        <dc:title></dc:title>
      </cc:Work>
    </rdf:RDF>
  </metadata>
  <sodipodi:namedview
     pagecolor="#ffffff"
     bordercolor="#666666"
     borderopacity="1"
     objecttolerance="10"
     gridtolerance="10"
     guidetolerance="10"
     inkscape:pageopacity="0"
     inkscape:pageshadow="2"
     inkscape:window-width="1920"
     inkscape:window-height="1051"
     id="namedview13"
     showgrid="false"
     inkscape:zoom="0.65186406"
     inkscape:cx="-169.49386"
     inkscape:cy="386.87784"
     inkscape:window-x="3440"
     inkscape:window-y="0"
     inkscape:window-maximized="1"
     inkscape:current-layer="Wikimedia logo"
     inkscape:snap-global="true"
     inkscape:snap-bbox="true"
     inkscape:bbox-nodes="true"
     fit-margin-top="0"
     fit-margin-left="0"
     fit-margin-right="0"
     fit-margin-bottom="0" />
  <defs
     id="defs3">
    <clipPath
       id="mask">
      <path
         d="m 47.5,-87.5 v 425 h -95 v -425 l -552,-552 v 1250 h 1199 v -1250 z"
         id="path6"
         inkscape:connector-curvature="0" />
    </clipPath>
    <linearGradient
       id="linearGradient9515">
      <stop
         style="stop-color:#387eb8;stop-opacity:1"
         offset="0"
         id="stop9517" />
      <stop
         style="stop-color:#366994;stop-opacity:1"
         offset="1"
         id="stop9519" />
    </linearGradient>
  </defs>
  <circle
     style="fill:none;stroke:#006699;stroke-width:135.5"
     cy="-40.039986"
     cx="-40.039986"
     r="480.25"
     id="blue arc" />
  <g
     id="g3857"
     transform="matrix(6.029204,0,0,6.0555322,-47.699848,-108.7373)">
    <path
       inkscape:connector-curvature="0"
       style="color:#000000;display:inline;overflow:visible;visibility:visible;fill:#990000;fill-opacity:1;fill-rule:nonzero;stroke:none;stroke-width:1;marker:none"
       d="m 1.0573595,-53.152162 c -32.7949375,3e-6 -30.7470095,14.221863 -30.7470095,14.221863 l 0.03656,14.733704 H 1.6423205 v 4.423767 H -42.083511 c 0,0 -20.985474,-2.379944 -20.985474,30.71045 -2e-6,33.090387 18.31659,31.916932 18.31659,31.916932 h 10.931458 V 27.499329 c 0,0 -0.589234,-18.3165896 18.024109,-18.3165896 18.6133406,0 31.039491,0 31.039491,0 0,0 17.439148,0.2819044 17.439148,-16.8541873 0,-17.1360871 0,-28.3340461 0,-28.3340461 0,-2e-6 2.647744,-17.146668 -31.6244515,-17.146668 z m -17.2563475,9.907776 c 3.113664,-2e-6 5.630249,2.516585 5.630249,5.630249 2e-6,3.113664 -2.516585,5.63025 -5.630249,5.63025 -3.113665,2e-6 -5.63025,-2.516586 -5.63025,-5.63025 -2e-6,-3.113664 2.516585,-5.630249 5.63025,-5.630249 z"
       id="path8615" />
    <path
       inkscape:connector-curvature="0"
       id="path8620"
       d="m 1.9887343,75.359196 c 32.7949467,0 30.7470097,-14.221863 30.7470097,-14.221863 l -0.0365,-14.733704 H 1.4038329 V 41.979862 H 45.129664 c 0,0 20.985474,2.379937 20.985474,-30.710462 1.2e-5,-33.090383 -18.31659,-31.916928 -18.31659,-31.916928 H 36.86709 v 15.3552215 c 0,0 0.589243,18.3165895 -18.024109,18.3165895 -18.61334256,0 -31.039493,0 -31.039493,0 0,0 -17.439148,-0.281904 -17.439148,16.854199 0,17.13608 0,28.334046 0,28.334046 0,0 -2.647744,17.146668 31.6244538,17.146668 z M 19.245082,65.45142 c -3.113665,0 -5.630249,-2.516584 -5.630249,-5.630249 0,-3.113665 2.516584,-5.630249 5.630249,-5.630249 3.113666,0 5.63025,2.516584 5.63025,5.630249 1.1e-5,3.113665 -2.516584,5.630249 -5.63025,5.630249 z"
       style="color:#000000;display:inline;overflow:visible;visibility:visible;fill:#339966;fill-opacity:1;fill-rule:nonzero;stroke:none;stroke-width:1;marker:none" />
  </g>
</svg>
